<?xml version="1.0" standalone="no"?>
<!DOCTYPE svg PUBLIC "-//W3C//DTD SVG 1.1//EN" "http://www.w3.org/Graphics/SVG/1.1/DTD/svg11.dtd" >
<!--
2013-9-30: Created.
-->
<svg>
<metadata>
Created by iconfont
</metadata>
<defs>

<font id="font_family" horiz-adv-x="1024" >
  <font-face
    font-family="font_family"
    font-weight="500"
    font-stretch="normal"
    units-per-em="1024"
    ascent="896"
    descent="-128"
  />
    <missing-glyph />
    
    <glyph glyph-name="xiala" unicode="&#59426;" d="M824.32 567.04c-12.8 12.8-33.28 12.8-45.44 0L481.92 272 183.68 567.04c-12.8 12.8-33.28 12.8-45.44 0-12.8-12.16-12.8-32.64 0-45.44l317.44-314.24c1.28-1.28 1.28-3.2 2.56-4.48 12.8-12.8 33.28-12.8 45.44 0l320 318.08C837.12 533.76 837.12 554.24 824.32 567.04z"  horiz-adv-x="1024" />

    
    <glyph glyph-name="gengduo" unicode="&#58920;" d="M256-55.4l430.186 421.25c10.234 10.03 10.234 26.28 0 36.301L256 823.41V896l504.32-493.85c10.24-10.021 10.24-26.275 0-36.301L256-128v72.6z"  horiz-adv-x="1024" />

    
    <glyph glyph-name="syliulan" unicode="&#58930;" d="M768 668.444444A313.230222 313.230222 0 0 1 455.111111 355.555556c0-172.487111 140.344889-312.888889 312.888889-312.888889S1080.888889 183.068444 1080.888889 355.555556C1080.888889 528.099556 940.544 668.444444 768 668.444444z m0-512c-109.795556 0-199.111111 89.315556-199.111111 199.111112S658.204444 554.666667 768 554.666667 967.111111 465.351111 967.111111 355.555556 877.795556 156.444444 768 156.444444zM1527.239111 408.974222C1413.12 695.694222 1101.027556 896 768 896 434.915556 896 122.709333 695.694222 8.760889 408.974222L0 386.787556l8.760889-22.243556C106.040889 119.751111 398.051556-128 768-128c370.005333 0 661.959111 247.751111 759.239111 492.544l8.760889 22.186667-8.760889 22.186666zM768-19.342222c-317.610667 0-568.661333 200.704-661.731556 405.959111C198.428444 589.368889 449.251556 787.342222 768 787.342222s569.571556-197.973333 661.731556-400.611555c-93.070222-205.255111-344.177778-405.959111-661.731556-405.959111z"  horiz-adv-x="1536" />

    
    <glyph glyph-name="syshouye" unicode="&#58932;" d="M1013.991238 367.764945a34.238836 34.238836 0 0 0-48.481746 0l-0.130327 0.167564L528.168401 806.260364a22.807273 22.807273 0 0 1-32.321163 0L58.673711 367.913891a34.220218 34.220218 0 0 0-57.474328 15.36 34.443636 34.443636 0 0 0 8.992582 33.270691L471.643601 879.2064a57.027491 57.027491 0 0 0 80.80291 0l461.4144-462.661818 0.167563-0.167564a34.425018 34.425018 0 0 0 0-48.612073z m-82.553018 253.672728a34.331927 34.331927 0 0 0-34.276073 34.387782V770.420364h-114.297018A34.331927 34.331927 0 0 0 748.589056 804.770909c0 18.990545 15.341382 34.387782 34.276073 34.387782h148.573091c18.934691 0 34.276073-15.397236 34.276072-34.387782V655.825455c0-18.990545-15.341382-34.387782-34.276072-34.387782zM133.74222 349.574982c18.822982 0 34.127127-15.229673 34.276072-34.089891v-351.809164c0-12.660364 10.24-22.918982 22.863128-22.918982h156.578909V210.050327c0 31.650909 25.581382 57.306764 57.1392 57.306764h214.853818a57.213673 57.213673 0 0 0 57.1392-57.306764v-269.293382h156.578909a22.900364 22.900364 0 0 1 22.844509 22.918982V310.551273a34.425018 34.425018 0 0 0 13.833309 33.065891c10.426182 7.558982 24.203636 8.6016 35.653818 2.736872 11.4688-5.864727 18.674036-17.687273 18.692655-30.589672v-0.279273h0.372364v-386.196946c0-31.650909-25.562764-57.288145-57.120582-57.288145H608.021783V176.146618c0 12.660364-10.24 22.918982-22.863127 22.918982H438.875601a22.900364 22.900364 0 0 1-22.844509-22.900364V-128H156.605347a57.213673 57.213673 0 0 0-57.157818 57.288145V315.485091h0.018618a34.331927 34.331927 0 0 0 34.276073 34.071273z"  horiz-adv-x="1024" />

    
    <glyph glyph-name="sywode" unicode="&#58934;" d="M530.618182 809.462691c97.6896 0 176.872727-77.488873 176.872727-173.074618 0-95.585745-79.183127-173.056-176.872727-173.056S353.745455 540.802327 353.745455 636.388073s79.183127 173.074618 176.872727 173.074618zM530.618182 896c-146.525091 0-265.309091-116.233309-265.309091-259.611927 0-143.36 118.784-259.593309 265.309091-259.593309s265.309091 116.214691 265.309091 259.593309c0 68.850036-27.945891 134.888727-77.712291 183.575272C668.4672 868.649891 600.994909 896 530.618182 896z m353.745454-677.850764c48.835491 0 88.436364-38.744436 88.436364-86.537309v-173.074618H88.436364v173.074618c0 47.792873 39.600873 86.537309 88.436363 86.537309h707.490909z m0 86.518691h-707.490909c-97.6896 0-176.872727-77.470255-176.872727-173.056v-201.914182C0-102.176582 26.400582-128 58.963782-128h943.3088C1034.8544-128 1061.236364-102.176582 1061.236364-70.302255V131.611927c0 95.585745-79.183127 173.056-176.872728 173.056z"  horiz-adv-x="1061" />

    
    <glyph glyph-name="syxiaoxi" unicode="&#58935;" d="M823.854545 699.075491H78.457018C35.188364 699.075491 0 663.831273 0 620.320582V147.735273c0-43.529309 35.188364-78.754909 78.457018-78.754909H156.951273V-128l196.142545 196.980364H823.854545a78.568727 78.568727 0 0 1 78.457019 78.773527V620.320582a78.587345 78.587345 0 0 1-78.457019 78.754909z m0-551.3216H320.605091l-85.215418-85.531927V147.735273H78.457018V620.320582H823.854545V147.735273z m-568.859927 177.152a58.9824 58.9824 0 0 1 58.852073 59.149964c0 32.581818-26.270255 59.019636-58.833455 59.019636a58.926545 58.926545 0 0 1-58.852072-59.019636 59.001018 59.001018 0 0 1 58.833454-59.149964z m196.161164 0a58.9824 58.9824 0 0 1 58.833454 59.149964c0 32.581818-26.251636 59.019636-58.833454 59.019636a58.926545 58.926545 0 0 1-58.833455-59.019636 58.9824 58.9824 0 0 1 58.833455-59.149964z m196.161163 0a59.038255 59.038255 0 0 1 58.833455 59.149964c0 32.581818-26.344727 59.019636-58.833455 59.019636a58.963782 58.963782 0 0 1-58.833454-59.019636 59.019636 59.019636 0 0 1 58.833454-59.149964zM1020.015709 896H274.618182c-43.287273 0-78.457018-35.262836-78.457018-78.754909v-78.773527h78.457018v78.754909h745.397527v-472.548073H941.521455v-78.754909h78.475636A78.568727 78.568727 0 0 1 1098.472727 344.659782V817.226473A78.587345 78.587345 0 0 1 1020.015709 896z"  horiz-adv-x="1098" />

    
    <glyph glyph-name="wdfankui" unicode="&#58936;" d="M822.956194-128H142.619236C80.047075-128 29.263872-78.094387 29.263872-16.604586V725.953497C29.263872 787.443297 80.047075 837.348911 142.619236 837.348911h528.98195c20.945146 0 37.794872-16.557196 37.794873-37.151307 0-20.535604-16.849726-37.092801-37.794873-37.092801H142.619236c-20.711122 0-37.794872-16.79122-37.794872-37.151306v-742.558083c0-20.564857 17.08375-37.151307 37.794872-37.151307h680.132187c20.915893 0 37.794872 16.586449 37.794873 37.151307V577.640801c0 20.564857 16.849726 37.151307 37.765619 37.151306 20.945146 0 37.794872-16.586449 37.794873-37.151306v-594.040616C936.311559-77.889616 885.323585-128 822.956194-128zM565.910107 427.806949a38.906486 38.906486 0 0 0-27.790347 11.584186 39.052751 39.052751 0 0 0 0 55.43443L927.623419 884.329224a39.023498 39.023498 0 0 0 55.43443 0 39.052751 39.052751 0 0 0 0-55.43443L593.524937 439.186364c-7.605779-7.605779-17.698063-11.379416-27.61483-11.379415zM457.088957 457.059946h-241.337227C193.490199 457.059946 175.528858 470.106783 175.528858 486.312943s17.96134 29.252997 40.222872 29.252997h241.337227c22.261531 0 40.222871-13.046837 40.222872-29.252997s-17.96134-29.252997-40.222872-29.252997zM637.492192 252.288965H211.041997C191.383983 252.288965 175.528858 265.335802 175.528858 281.541962s15.855125 29.252997 35.513139 29.252997h426.274677c19.658014 0 35.513139-13.046837 35.513138-29.252997s-15.855125-29.252997-35.33762-29.252997z"  horiz-adv-x="1024" />

    
    <glyph glyph-name="xiangji" unicode="&#58937;" d="M609.289872 629.759924C442.459809 629.759924 307.209902 494.510018 307.209902 327.679954S442.459809 25.599985 609.289872 25.599985 911.369842 160.849891 911.369842 327.679954A302.07997 302.07997 0 0 1 609.289872 629.759924z m171.806703-449.341395a226.559977 226.559977 0 1 0-24.545278 319.447008 226.559977 226.559977 0 0 0 24.545278-319.825888v0.37888zM605.306512 486.399939C519.843481 486.399939 450.569888 417.116105 450.569888 331.663314a19.343358 19.343358 0 0 1 38.686716 0c0 64.092154 51.957755 116.049908 116.049908 116.049908a19.343358 19.343358 0 0 1 0 38.686717zM1113.548381 668.44664l-163.502063 27.299838-51.732475 128.952307A113.274869 113.274869 0 0 1 792.964734 895.999898H415.375011a113.285109 113.285109 0 0 1-105.349109-71.679993l-51.732475-130.088947-163.502064-25.784318C39.546569 659.251121-0.727347 610.908086 0.020173 554.670012V-14.233611C0.020173-77.056005 50.738888-128 113.295041-128h981.749662c62.566394 0 113.274869 50.943995 113.274869 113.776629V554.670012c0.74752 56.238074-39.526396 104.59135-94.771191 113.766388z m19.251199-682.670011c0-10.055679-3.97312-19.701758-11.059199-26.818558a37.683196 37.683196 0 0 0-26.695678-11.110399H113.295041a37.847036 37.847036 0 0 0-37.754876 37.928957V554.670012a37.887996 37.887996 0 0 0 31.713277 37.918716l205.41438 34.508796 67.583993 169.912303a37.754876 37.754876 0 0 0 35.123196 23.142398h377.589723a37.765116 37.765116 0 0 0 35.123196-23.900157l67.583993-169.902063 205.41438-33.761277a37.887996 37.887996 0 0 0 31.713277-37.918716V-14.233611z"  horiz-adv-x="1208" />

    
    <glyph glyph-name="lijifankui" unicode="&#58938;" d="M720.205882 818.382818c20.94757 0 37.916271-21.298646 37.916271-47.570877v-287.531725l-257.251369-183.700823-236.771901 177.118137V771.367812c0 26.272231 16.968702 47.541621 37.945528 47.541621h416.406088l1.755383-0.526615zM718.450499 896H303.770538c-26.330744 0-51.549745-13.165372-70.127548-36.541221-18.577803-23.405106-28.963818-55.089768-28.846793-88.090967v-337.852702l264.682489-200.084397a50.233208 50.233208 0 0 1 61.028814 0L819.180223 439.541925V771.367812C819.180223 839.886259 774.856804 895.414872 720.205882 895.414872L718.450499 896zM905.720601 505.076221v-529.950107c0-13.721243-15.652164-28.46646-36.863041-28.46646H154.70927c-21.181621 0-36.863042 15.271832-36.863041 28.46646V502.443147l353.300071-263.658517a49.443286 49.443286 0 0 1 60.151122 0l374.481692 266.291591zM965.462134 632.69256L501.602194 303.64603 58.514286 632.69256v-657.566446c4.066637-61.262864 46.897981-107.078359 96.165728-102.836183h712.919521c49.267748-4.242175 92.128348 41.573319 96.165728 102.836183V632.69256H965.462134zM351.078108 720.461707h292.563822M644.110032 691.205325H350.610006c-10.298247 0-19.777314 8.367325-24.926438 21.942286a64.364041 64.364041 0 0 0 0 43.884574c5.149123 13.574961 14.628191 21.942287 24.926438 21.942286h293.500026c15.915472 0 28.78828-19.660289 28.78828-43.884573S660.025504 691.205325 644.110032 691.205325zM321.821725 603.436178h204.794676M527.318554 544.923414H350.375954c-10.210477 0-19.631032 8.367325-24.721642 21.942286a64.861399 64.861399 0 0 0 0 43.884574c5.090611 13.574961 14.511166 21.942287 24.721642 21.942286h176.9426c15.798446 0 28.554229-19.660289 28.554229-43.884573s-12.785039-43.884573-28.554229-43.884573zM870.203353 749.718089h-91.86504v-75.071877h91.426194c18.958136 0 34.28848-19.455494 34.28848-43.445727v-643.347845c0-23.990233-15.330344-43.445728-34.28848-43.445727H149.969736c-18.928879 0-34.28848 19.455494-34.288479 43.416471V631.229741c0 23.990233 15.359601 43.445728 34.288479 43.445728h91.865041V749.688833H152.105452C100.409425 749.718089 58.514286 696.647012 58.514286 631.229741v-643.347844c1.170255-64.422554 42.714318-115.855273 93.56191-115.826017h719.824027C923.566994-127.973377 965.462134-74.931556 965.462134-9.485029V633.862816c-1.170255 65.241732-43.738291 117.025529-95.258781 115.855273z"  horiz-adv-x="1024" />

    
    <glyph glyph-name="wdjingyan" unicode="&#58939;" d="M967.111111 18.744889c0 156.046222-79.502222 289.422222-191.914667 343.808 54.442667 44.231111 90.339556 119.580444 90.339556 205.141333 0 116.821333-66.844444 214.584889-156.586667 240.014222a3.242667 3.242667 0 0 1-2.360889-0.256c-1.024 0.113778-2.019556 0.398222-3.072 0.398223-19.143111 0-34.702222-18.915556-34.702222-42.211556 0-21.048889 12.714667-38.343111 29.297778-41.528889 2.958222-1.479111 6.826667-2.56 6.968889-2.645333 51.968-21.447111 89.372444-81.152 89.372444-151.580445 0-78.506667-46.535111-143.758222-107.889777-157.44-0.085333 0-0.170667-0.199111-0.256-0.227555-20.394667-1.592889-36.608-21.987556-36.608-47.217778 0-25.571556 16.668444-46.279111 37.546666-47.303111 0.142222-0.085333 0.256-0.369778 0.398222-0.369778 123.392-15.274667 210.887111-143.075556 210.887112-298.581333 0-23.04 15.36-41.699556 34.275555-41.699556 18.488889 0 33.450667 17.806222 34.161778 40.049778 0.028444 0.227556 0.142222 0.398222 0.142222 0.625778v0.227555 0.768zM556.145778 355.640889c64.995556 52.935111 107.832889 142.990222 107.832889 245.248C663.978667 763.875556 555.320889 896 421.233778 896S178.460444 763.875556 178.460444 600.888889c0-102.286222 42.837333-192.284444 107.832889-245.248C151.921778 290.417778 56.888889 130.901333 56.888889-55.751111c0-10.524444 0.483556-20.849778 1.137778-31.146667h0.085333c0-22.698667 15.132444-41.102222 33.848889-41.102222 18.659556 0 33.792 18.403556 33.792 41.102222 0 1.28-0.199111 2.503111-0.284445 3.754667a380.103111 380.103111 0 0 0-1.223111 27.392c0 199.395556 132.949333 361.016889 296.96 361.016889 164.039111 0 296.988444-161.621333 296.988445-361.016889 0-9.614222-0.568889-19.057778-1.251556-28.444445 0-0.512-0.113778-0.938667-0.113778-1.422222l0.028445-0.455111-0.028445-0.796444h0.113778c0.568889-22.129778 15.388444-39.879111 33.706667-39.879111 18.346667 0 33.166222 17.749333 33.735111 39.879111h0.085333a503.466667 503.466667 0 0 1 1.080889 31.118222c0 186.652444-95.004444 346.168889-229.404444 411.392z m-134.912 33.28c-96.312889 0-174.364444 94.919111-174.364445 211.968 0 117.077333 78.051556 211.996444 174.364445 211.996444 96.284444 0 174.364444-94.919111 174.364444-211.996444 0-117.048889-78.08-211.968-174.364444-211.968z"  horiz-adv-x="1024" />

    
    <glyph glyph-name="wdfenxiang" unicode="&#58940;" d="M986.336799 423.366981c-20.149404 0-36.566214-17.605955-36.566214-39.307854v-393.3428c0-21.734931-16.350746-39.340886-36.533182-39.340886H109.111007c-20.149404 0-36.566214 17.605955-36.566214 39.307854V659.4123c0 21.7019 16.383778 39.307855 36.566214 39.307854h255.864404c20.149404 0 36.533182 17.638987 36.533183 39.373918 0 21.7019-16.350746 39.307855-36.533183 39.307855-1.189145 0-2.147068-0.561541-3.303181-0.660636H109.54042C49.059175 776.675227 0.006937 723.791298 0.006937 658.553473v-668.497782C0.006937-75.149103 49.059175-128 109.54042-128h804.390651c60.481245 0 109.533484 52.850897 109.533483 118.088723V384.059127h-0.56154c0 21.7019-16.383778 39.307855-36.566215 39.307854z m-600.022838-173.020623c-2.180099-5.053867-3.633499-10.570179-3.633499-16.515905 0-21.7019 16.383778-39.307855 36.566214-39.307855 17.638987 0 31.710538 13.708201 35.112815 31.644475h0.759731c42.379813 233.171551 221.544353 413.327045 443.947534 440.380098l-77.426564-83.306227a41.42189 41.42189 0 0 1 0-55.625568 34.683401 34.683401 0 0 1 51.694783 0l139.955782 150.625056a41.42189 41.42189 0 0 1 0 55.592537L873.334975 884.458025a34.683401 34.683401 0 0 1-51.694783 0 41.42189 41.42189 0 0 1 0-55.625569l77.129278-83.00894c-254.807386-27.284276-460.463439-230.760228-512.455509-495.477158z"  horiz-adv-x="1024" />

    
    <glyph glyph-name="wdgoumai" unicode="&#58941;" d="M419.231135 524.786162c120.776649 0 246.341189 26.402595 321.72973 76.633946v-91.551135h69.82573V710.406919C810.786595 830.962162 609.030919 896 419.231135 896 229.403676 896 27.675676 830.962162 27.675676 710.379243v-547.065081c0-120.555243 201.755676-185.593081 391.555459-185.593081v69.327568c-199.320216 0-321.702054 67.722378-321.702054 116.237837v164.559568c75.360865-50.231351 200.925405-76.60627 321.702054-76.60627V320.622703c-199.320216 0-321.702054 67.722378-321.702054 116.237838v164.559567c75.360865-50.203676 200.89773-76.60627 321.702054-76.60627z m0 301.858595c199.320216 0 321.72973-67.722378 321.72973-116.237838 0-48.543135-122.409514-116.237838-321.72973-116.237838S97.501405 661.863784 97.501405 710.379243c0 48.515459 122.409514 116.237838 321.72973 116.237838z m313.011892-339.746595c-173.388108 0-264.108973-66.255568-264.108973-131.680865v-351.564108c0-65.425297 90.720865-131.653189 264.081297-131.653189 172.087351 0 262.697514 65.259243 264.025946 130.214054H996.324324V355.217297c0 65.425297-90.720865 131.680865-264.108973 131.680865z m0-69.355243c128.138378 0 194.227892-43.672216 194.227892-62.325622 0-18.62573-66.089514-62.325622-194.255568-62.325621-128.138378 0-194.255568 43.672216-194.255567 62.325621 0 18.653405 66.117189 62.325622 194.283243 62.325622z m0-476.16c-128.19373 0-194.283243 43.672216-194.283243 62.297946V87.593514c44.308757-23.884108 109.346595-39.797622 194.283243-39.797622 84.881297 0 149.919135 15.913514 194.227892 39.797622v-83.912649c0-18.62573-66.089514-62.297946-194.255568-62.297946z m0 175.74054c-128.19373 0-194.283243 43.699892-194.283243 62.325622v83.940324c44.308757-23.911784 109.346595-39.825297 194.283243-39.825297 84.881297 0 149.919135 15.913514 194.227892 39.797622v-83.912649c0-18.62573-66.089514-62.297946-194.255568-62.297946z"  horiz-adv-x="1024" />

    
    <glyph glyph-name="wddangan" unicode="&#58942;" d="M885.032421-128H138.967579C92.079158-128 53.894737-90.085053 53.894737-43.493053V811.493053C53.894737 858.085053 92.052211 896 138.967579 896h746.064842C931.920842 896 970.105263 858.085053 970.105263 811.493053v-854.986106C970.105263-90.085053 931.947789-128 885.032421-128zM138.967579 816.505263c-2.694737 0-5.066105-2.344421-5.066105-5.01221v-854.986106c0-2.694737 2.371368-5.039158 5.066105-5.039158h746.064842c2.694737 0 5.066105 2.371368 5.066105 5.039158V811.493053c0 2.694737-2.371368 5.039158-5.066105 5.039158H138.967579zM80.842105 520.542316L81.030737 599.578947 916.210526 597.773474 916.021895 518.736842zM485.052632 653.473684h53.894736v-188.631579h-53.894736zM431.157895 720.842105c0-33.684211 15.413895-64.835368 40.421052-81.677473a70.979368 70.979368 0 0 1 80.842106 0c25.007158 16.842105 40.421053 47.966316 40.421052 81.677473C592.842105 772.931368 556.651789 815.157895 512 815.157895s-80.842105-42.226526-80.842105-94.31579zM431.157895 397.473684c0-52.089263 36.190316-94.315789 80.842105-94.315789s80.842105 42.226526 80.842105 94.315789c0 33.684211-15.413895 64.835368-40.421052 81.677474a70.979368 70.979368 0 0 1-80.842106 0c-25.007158-16.842105-40.421053-47.966316-40.421052-81.677474z"  horiz-adv-x="1024" />

    
    <glyph glyph-name="wdshiguangzhou" unicode="&#58943;" d="M976.789683 850.535519a44.798601 44.798601 0 0 0-44.809792-44.809792H90.117596A44.798601 44.798601 0 0 0 45.313399 850.535519 44.798601 44.798601 0 0 0 90.117596 895.345311h841.862295c24.699104 0 44.804197-20.110689 44.804196-44.809792z m0-931.80083a44.798601 44.798601 0 0 0-44.809792-44.809793H90.117596a44.798601 44.798601 0 0 0-44.804197 44.809793 44.798601 44.798601 0 0 0 44.804197 44.804196h841.862295c24.699104 0 44.804197-20.105093 44.804196-44.804196z m-230.819672 97.375125a44.798601 44.798601 0 0 0-44.809792-44.809792h-380.334864a44.798601 44.798601 0 0 0-44.804197 44.809792 44.798601 44.798601 0 0 0 44.809793 44.809793h380.435585c24.699104-0.111913 44.703475-20.110689 44.703475-44.809793zM510.992787 325.508896a44.798601 44.798601 0 0 0 44.809792-44.809792v-87.431694a44.798601 44.798601 0 0 0-44.809792-44.809793 44.798601 44.798601 0 0 0-44.804197 44.809793V280.816612c0.106317 24.699104 20.105093 44.69788 44.804197 44.69788z m0 194.537618a44.798601 44.798601 0 0 0 44.809792-44.809793 44.798601 44.798601 0 0 0-44.809792-44.809792 44.798601 44.798601 0 0 0-44.804197 44.809792c0.106317 24.805421 20.105093 44.804197 44.804197 44.804197zM193.289792 886.381115a44.798601 44.798601 0 0 0 44.809793-44.809793v-162.944699a44.798601 44.798601 0 0 0-44.809793-44.809792 44.798601 44.798601 0 0 0-44.809792 44.804196V841.571322c0 24.704699 20.110689 44.809792 44.809792 44.809793z m631.802405 0a44.798601 44.798601 0 0 0 44.809792-44.809793v-162.944699a44.798601 44.798601 0 0 0-44.809792-44.809792 44.798601 44.798601 0 0 0-44.809793 44.804196V841.571322a44.798601 44.798601 0 0 0 44.809793 44.809793z m-631.802405-995.406339a44.798601 44.798601 0 0 1 44.809793 44.804197v143.169748a44.798601 44.798601 0 0 1-44.809793 44.809793 44.798601 44.798601 0 0 1-44.809792-44.809793v-143.169748c0-24.699104 20.110689-44.804197 44.809792-44.804197z m631.802405 0a44.798601 44.798601 0 0 1 44.809792 44.804197v143.169748a44.798601 44.798601 0 0 1-44.809792 44.809793 44.798601 44.798601 0 0 1-44.809793-44.809793v-143.169748a44.798601 44.798601 0 0 1 44.809793-44.804197zM442.90518 424.74177c-117.704044 29.617661-204.805596 136.068896-204.805595 262.949771v3.82741H148.591913v-3.82741c0-176.502907 126.880874-323.388153 294.313267-354.533421V424.74177z m426.890492 266.777181h-89.513268v-3.82741c0-127.099104-87.538011-233.768568-205.572196-263.056087v-91.583651c167.868852 30.815126 295.079869 177.918601 295.079869 354.639738v3.82741zM443.017093 333.270033V424.848087c-167.544306-31.150863-294.42518-178.036109-294.42518-354.539016v-3.821814H238.205902v3.821814c-0.111913 126.780153 87.107148 233.337705 204.811191 262.955366zM574.82212 424.96v-91.58365c118.02859-29.287519 205.572197-135.956984 205.572197-263.061683v-3.821815h89.507672v3.821815c0 176.721137-127.211016 323.824612-295.079869 354.650929zM411.765508 344.125552a45.90094 45.90094 0 1 1 59.638208 69.788678 45.90094 45.90094 0 0 1-59.638208-69.788678zM549.725727 343.980066A45.90094 45.90094 0 1 1 609.363934 413.768743a45.90094 45.90094 0 0 1-59.638207-69.788677z"  horiz-adv-x="1024" />

    
    <glyph glyph-name="wdkaoji" unicode="&#58944;" d="M809.734919 528.57773l104.614054 153.101838c4.040649 6.808216 4.040649 10.212324 4.040649 16.992864v163.286487C918.389622 896 886.202811 896 845.962378 896H113.47027C105.416649 896 93.350054 892.595892 85.296432 885.787676 77.215135 878.979459 73.202162 872.198919 73.202162 861.986595v-163.286487c0-6.808216 0-10.24 4.040649-17.02054l116.708324-176.902919C117.483243 436.722162 69.189189 348.270703 69.189189 246.230486 69.189189 38.690595 266.406054-128 511.916973-128c245.483243 0 442.700108 166.690595 442.700108 374.230486 4.040649 112.252541-56.347676 214.320432-144.882162 282.347244z m28.173838 180.307027l-96.588108-139.485406c-8.053622 3.404108-20.120216 10.24-28.173838 13.616433v244.92973h124.761946V708.912432zM515.929946 623.837405c-56.347676 0-108.654703-10.212324-160.989405-27.205189V827.973189h281.738378v-217.752216c-40.268108 6.808216-80.508541 13.616432-120.748973 13.616432zM153.710703 827.973189h120.748973v-261.977946c-4.040649-3.404108-12.09427-6.780541-16.107244-10.184648L153.710703 708.884757V827.973189z m362.219243-884.514594c-201.229838 0-362.219243 136.053622-362.219243 306.176 0 170.094703 160.989405 306.176 362.219243 306.176 201.229838 0 362.219243-136.081297 362.219243-306.176 0-170.122378-165.002378-306.203676-362.219243-306.203676zM525.837838 453.189189C396.454054 453.189189 290.594595 359.783784 290.594595 245.621622s105.859459-207.567568 235.243243-207.567568 235.243243 93.405405 235.243243 207.567568-105.859459 207.567568-235.243243 207.567567z m0-345.945946c-86.265081 0-156.838054 62.27027-156.838054 138.378379s70.572973 138.378378 156.838054 138.378378 156.838054-62.27027 156.838054-138.378378-70.572973-138.378378-156.838054-138.378379z"  horiz-adv-x="1024" />

    
    <glyph glyph-name="wddianhua" unicode="&#58945;" d="M839.067658 784.147296C741.056965 849.482613 621.259256 873.688121 502.073889 852.513447c-15.730492-3.025688-26.016804-17.546935-22.991115-33.277427 1.209246-7.255477 5.444181-13.91405 11.495558-18.756181a29.243176 29.243176 0 0 1 21.174673-4.836985c104.664121 18.148985 209.945729-2.418492 295.853668-59.896281 85.913085-56.875739 142.181628-142.181628 159.723417-240.197467 2.423638-13.91405 14.526392-23.593166 28.440443-23.593166 1.816442 0 3.025688 0 4.836985 0.60205 15.735638 3.025688 26.02195 17.546935 22.996261 33.277427-19.965427 114.348382-85.311035 212.966271-184.536121 278.311879zM532.33592 654.40804c61.105528 10.888362 122.211055-1.209246 172.433366-34.486673 49.604824-32.675377 82.280201-82.280201 92.566513-139.15594 2.418492-13.91405 14.521246-23.598312 28.435296-23.598311 1.816442 0 3.025688 0 4.836985 0.607196 15.735638 3.025688 26.02195 17.546935 22.996262 33.277427-12.70995 72.606231-54.452101 135.523055-117.374071 176.668301-62.31992 41.140101-138.553889 56.870593-213.573467 43.558593-15.730492-3.025688-26.016804-17.546935-22.991116-33.277427 2.418492-15.730492 16.939739-26.618854 32.670232-23.593166zM891.199035 219.583678c-30.853789 21.781869-62.92197 41.747296-91.357266 56.268543-45.982231 24.200362-66.554854 27.220905-77.443216 27.220905-23.598312 0-44.165789-12.092462-60.503478-36.29797-10.286312-15.128442-18.148985-32.675377-25.409608-49.60997-3.632884-7.867819-9.679116-22.991116-14.521246-30.858935-9.077065 3.025688-30.853789 12.102754-69.575397 38.721608-38.119558 26.016804-79.861709 59.896281-111.327839 90.755216-30.853789 31.460985-64.733266 73.208281-90.75007 111.92989-26.624 39.323658-35.69592 60.498332-38.721608 69.575397 7.862673 4.836985 22.38392 10.893508 31.460984 15.128442 16.939739 7.255477 34.486673 15.128442 49.002774 25.409608 23.598312 16.332543 35.701065 36.905166 35.701066 60.503477 0 11.495558-3.025688 31.460985-27.226051 78.045267-14.521246 27.833246-34.486673 60.503477-56.268542 91.357266-16.337688 22.991116-40.53805 56.268543-66.554855 82.892543C247.45809 882.08595 224.461829 896 202.07791 896c-51.426412 0-107.694955-68.366151-130.084021-97.408643C50.829508 768.946814 0 693.92209 0 622.530251 0 555.970251 43.563739 470.669508 80.468905 410.773226c49.00792-79.259658 116.164824-165.177889 189.980301-240.799517l24.195216-24.205508c75.63192-73.810332 160.937809-141.574432 240.197467-190.582352 59.896281-36.905166 144.600121-80.463759 211.154975-80.463759 71.391839 0 146.411417 50.819216 175.45391 72.601086 29.042492 21.781869 97.408643 78.652462 97.408643 130.08402 0 22.38392-13.91405 45.977085-45.375035 76.228824-26.016804 24.802412-59.294231 49.60997-82.280201 65.947658zM269.234814 557.791839c-22.38392-15.128442-33.277427-33.277427-32.670231-55.059296 0-9.67397 1.209246-39.323658 53.242854-116.164824 28.435296-41.742151 65.340462-87.724382 99.827136-122.818252 34.486673-33.277427 79.861709-70.789789 121.609005-99.225085 76.841166-52.635658 106.485709-53.242854 117.37407-53.242854 21.179819 0 39.328804 11.495558 53.85005 33.277427 8.469869 12.70995 15.730492 29.042492 21.78187 44.165789 4.836985 11.495558 10.281166 23.598312 15.128442 32.068181 2.418492 4.234935 4.229789 6.653427 5.439035 7.867819 5.449327-1.214392 17.546935-5.449327 40.53805-17.546935 23.598312-12.70995 52.033608-29.644543 78.652463-48.400724 66.554854-45.982231 94.382955-77.443216 101.041527-87.734673-1.816442-3.627739-6.051377-11.490412-16.337688-23.593166-13.312-15.730492-32.675377-32.670231-53.242854-48.400723-47.186332-35.093869-95.592201-55.661347-128.869628-55.661347-38.114412 0-101.036382 25.409608-172.433367 69.575397-74.417528 45.982231-155.488482 110.118593-227.487518 180.301186l-22.991115 23.593166C253.504322 292.79196 189.373106 373.862915 143.390874 448.887638c-44.165789 71.999035-69.575397 134.921005-69.575397 173.035417 0 33.884623 20.567477 81.678151 55.661347 129.476824 15.128442 21.174673 32.670231 39.930854 47.793528 53.242855 12.102754 10.286312 19.965427 15.128442 23.598311 16.332542 10.286312-6.653427 41.747296-34.486673 87.729528-101.036382a877.125467 877.125467 0 0 0 48.400724-79.259658c12.097608-22.991116 16.332543-35.093869 17.546934-40.53805-1.214392-1.209246-3.632884-3.020543-7.867819-5.444181-9.077065-5.444181-21.174673-10.888362-33.277427-15.730492-15.730492-6.051377-30.853789-12.704804-44.165789-21.174674zM507.83196 517.387578a29.243176 29.243176 0 0 1 21.174673-4.836985c30.853789 5.444181 61.707578-0.607196 87.117186-17.546935 24.807558-16.337688 41.145246-41.145246 45.987377-69.580542 2.418492-13.91405 14.521246-23.593166 27.8281-23.593166 1.816442 0 3.632884 0 4.836985 0.60205 15.735638 3.025688 26.02195 17.546935 22.996262 33.277427-7.867819 44.165789-33.277427 82.280201-71.391839 107.087759a174.990794 174.990794 0 0 1-128.869629 26.016804c-15.730492-3.025688-26.016804-17.546935-22.991115-33.277427 3.020543-7.255477 7.255477-13.91405 13.306854-18.148985z"  horiz-adv-x="1029" />

    
    <glyph glyph-name="wdshezhi" unicode="&#58946;" d="M607.321892 895.995612a76.207781 76.207781 0 0 0 77.026904-75.47642v-8.9226c0-43.764622 36.041453-79.484276 80.303401-79.484277 14.071379 0 28.054995 3.803075 40.078564 10.648611l8.103476 4.680709a78.314099 78.314099 0 0 0 38.791369 10.326812c27.323634 0 52.833494-14.334669 66.700092-37.562683l95.193904-161.133381c21.355731-36.187725 8.688565-82.321956-28.172013-103.180362l-7.898695-4.446672c-38.908387-21.999329-52.27766-70.093606-30.190568-107.422254 6.991808-11.789534 17.055331-21.648276 29.049645-28.406048l8.015713-4.475927a74.540278 74.540278 0 0 0 28.376794-103.268125l-95.193904-161.016363a76.851378 76.851378 0 0 0-46.894845-35.046803 78.694407 78.694407 0 0 0-58.011528 7.313607l-8.015712 4.475927a83.667659 83.667659 0 0 1-80.742217 0.468071c-12.286859-6.757772-22.555163-16.616514-29.663989-28.640084a75.593438 75.593438 0 0 1-10.619356-38.703606v-8.9226a74.511024 74.511024 0 0 0-22.906216-53.945162 77.670502 77.670502 0 0 0-54.003671-21.765293h-190.241535a76.237035 76.237035 0 0 0-76.880632 75.008349l-0.117018 8.9226a78.489626 78.489626 0 0 1-23.813103 55.875954 80.742217 80.742217 0 0 1-96.451844 12.49164l-7.986458-4.680708a78.986951 78.986951 0 0 0-38.674352-10.18054A77.26094 77.26094 0 0 0 105.901023 47.032158L10.473085 208.428829a74.598787 74.598787 0 0 0 28.02574 102.975581l7.781678 4.446672a79.191732 79.191732 0 0 1 37.884482 48.211295 75.359402 75.359402 0 0 1-7.898695 59.093941 78.986951 78.986951 0 0 1-29.400699 28.493812l-7.898695 4.475927a74.452515 74.452515 0 0 0-28.610829 103.268125l95.193903 161.162635A76.939141 76.939141 0 0 0 152.415561 755.574365a78.752916 78.752916 0 0 0 58.011528-7.459878l8.13273-4.446673c25.041789-14.100634 55.58341-14.334669 80.888489-0.585089a77.992301 77.992301 0 0 1 29.751752 28.727847c6.962553 11.935806 10.619357 25.451351 10.531593 39.054659v9.068872a74.101462 74.101462 0 0 0 22.642927 54.032926 77.699756 77.699756 0 0 0 54.325469 21.882311h190.621843V895.995612z m-186.70175-81.327305a14.305414 14.305414 0 0 1-9.595451-3.773821 10.560848 10.560848 0 0 1-3.335005-7.781678l0.117018-8.688565a132.376279 132.376279 0 0 0-18.63507-69.040446 137.378786 137.378786 0 0 0-51.721826-50.054323 141.064844 141.064844 0 0 0-136.93997 0.789869l-7.781677 4.35891a14.071379 14.071379 0 0 1-10.531594 1.374958 12.725675 12.725675 0 0 1-7.781677-5.733868l-91.5371-154.726661c-3.071715-5.148779-1.25794-11.672516 4.680708-14.861248l7.693914-4.241892c21.267968-11.789534 38.908387-28.961882 51.136738-49.732525a133.517202 133.517202 0 0 0 13.837343-103.970231 136.822952 136.822952 0 0 0-65.091098-83.024063l-7.547642-4.212637c-5.733868-3.335005-7.547642-9.741724-4.475928-14.773485l91.5371-154.726661a13.164492 13.164492 0 0 1 11.438481-6.055667c2.398863 0 4.914744 0.585089 6.991808 1.813775l7.781677 4.358909a138.665981 138.665981 0 0 0 68.513867 18.079236c36.392506 0 70.941984-14.071379 96.919915-39.376458 26.328984-25.743895 41.073215-60.264118 41.190232-97.007678v-8.571547c0-5.967903 5.587595-11.350717 12.930456-11.350717h183.044946a13.398527 13.398527 0 0 1 9.507689 3.803075 10.765629 10.765629 0 0 1 3.30575 7.66466v8.571547a133.253912 133.253912 0 0 0 18.752087 68.484612 136.237864 136.237864 0 0 0 51.604808 50.025069 140.918572 140.918572 0 0 0 136.735189-0.672852l7.66466-4.358909a14.627213 14.627213 0 0 1 10.531594-1.257941 12.725675 12.725675 0 0 1 7.752423 5.733868l91.566354 154.609643c3.071715 5.148779 1.228686 11.672516-4.592945 14.890503l-7.66466 4.212638a135.389485 135.389485 0 0 0-50.814938 49.586252c-38.674352 65.412897-15.329319 149.460864 51.48779 187.228329l7.547642 4.271147c5.850885 3.30575 7.547642 9.71247 4.475927 14.861248l-91.420082 154.726661a13.252255 13.252255 0 0 1-11.438481 6.055666 13.544799 13.544799 0 0 1-6.991808-1.813774l-7.781677-4.35891a138.373437 138.373437 0 0 0-68.86492-18.31327 137.788348 137.788348 0 0 0-138.19791 137.291023v8.600801c0 6.055666-5.499832 11.438481-12.930456 11.438481l-183.074201-0.321799zM511.952462 303.593478c44.466728 0 80.449673 35.982944 80.449672 80.449672s-35.982944 80.449673-80.449672 80.449673-80.449673-35.982944-80.449673-80.449673 35.982944-80.449673 80.449673-80.449672z m0-80.449673a160.928599 160.928599 0 0 0-160.899346 160.899345c0 88.816438 72.082907 160.899345 160.899346 160.899345s160.899345-72.082907 160.899345-160.899345-72.082907-160.899345-160.899345-160.899345z"  horiz-adv-x="1024" />

    
    <glyph glyph-name="nanhao" unicode="&#58949;" d="M512 384m-512 0a512 512 0 1 1 1024 0 512 512 0 1 1-1024 0ZM737.355852 464.782222V566.537481l-112.336593-109.226666a216.594963 216.594963 0 0 0 49.455408-137.709037c0-121.325037-100.238222-220.046222-223.459556-220.046222C327.793778 99.555556 227.555556 198.276741 227.555556 319.601778 227.555556 440.888889 327.793778 539.610074 451.015111 539.610074c48.203852 0 92.766815-15.246222 129.365333-40.922074 31.023407 29.50637 93.487407 88.746667 114.763852 109.037037h-111.653926V668.444444H796.444444v-203.58637h-59.088592v-0.075852zM289.223111 319.601778c0-87.87437 72.590222-159.326815 161.867852-159.326815s161.829926 71.452444 161.829926 159.288889c0 87.87437-72.704 159.326815-161.905778 159.326815-89.201778 0-161.792-71.452444-161.792-159.288889z"  horiz-adv-x="1024" />

    
    <glyph glyph-name="fanhui" unicode="&#58950;" d="M149.09725 391.352078m32.912607 32.912606l438.834753 438.834754q32.912607 32.912607 65.825213 0l0 0q32.912607-32.912607 0-65.825213l-438.834753-438.834754q-32.912607-32.912607-65.825213 0l0 0q-32.912607 32.912607 0 65.825213ZM223.145493 451.533984m32.912607-32.912607l438.834754-438.834753q32.912607-32.912607 0-65.825214l0 0q-32.912607-32.912607-65.825213 0l-438.834754 438.834754q-32.912607 32.912607 0 65.825213l0 0q32.912607 32.912607 65.825213 0Z"  horiz-adv-x="1024" />

    
    <glyph glyph-name="nvhao" unicode="&#58951;" d="M512 384m-512 0a512 512 0 1 1 1024 0 512 512 0 1 1-1024 0ZM763.752296 639.051852A235.178667 235.178667 0 0 1 598.395259 706.37037c-63.867259 0-123.71437-25.031111-168.466963-70.46637a234.913185 234.913185 0 0 1-15.246222-312.395852l-57.268148-58.216296-129.441185 126.558815L189.62963 352.900741l129.441185-126.520889-90.756741-92.16 39.063704-38.229333 90.756741 92.16L487.575704 61.62963l38.305185 38.949926-129.403259 126.520888 57.268148 58.178371a235.026963 235.026963 0 0 1 144.649481-49.379556c63.943111 0 123.790222 25.031111 168.542815 70.542222a234.913185 234.913185 0 0 1-3.185778 332.610371z m-35.915852-294.456889a180.261926 180.261926 0 0 0-129.441185-54.120296 180.603259 180.603259 0 0 0-126.976 51.693037 180.41363 180.41363 0 0 0-2.427259 255.506963 180.261926 180.261926 0 0 0 129.441185 54.158222c47.786667 0 92.842667-18.394074 126.976-51.730963a180.41363 180.41363 0 0 0 2.427259-255.506963z"  horiz-adv-x="1024" />

    
    <glyph glyph-name="sytongzhi1" unicode="&#58953;" d="M170.661547 94.944561c233.705544 181.804912 456.129123 181.804912 667.252772 0 101.250246-87.165754-325.70386-15.144421-423.864141-18.719438-71.015298-2.586947-152.144842 3.664842-243.388631 18.719438zM864.394599 15.719298H159.613126A60.649544 60.649544 0 0 0 109.221547 42.846316a62.266386 62.266386 0 0 0-5.964351 57.613473l57.523649 144.024702V463.279158c0 46.097965 8.982456 90.902456 26.767719 133.227789a343.129825 343.129825 0 0 0 72.614176 108.921264 337.973895 337.973895 0 0 0 107.430175 73.602245A329.65614 329.65614 0 0 0 499.042178 806.175439h0.808421c45.487158 0 89.680842-9.126175 131.431299-27.127018a337.973895 337.973895 0 0 0 107.430175-73.62021 343.129825 343.129825 0 0 0 72.614175-108.921264c17.785263-42.325333 26.767719-87.129825 26.76772-133.227789v-216.081965l78.919859-139.138246a61.727439 61.727439 0 0 0-0.107789-61.637614A59.877053 59.877053 0 0 0 864.394599 15.719298zM180.416494 91.585123h659.671579l-76.83593 135.347649V463.279158c0 70.997333-27.486316 137.970526-77.392842 188.577684-49.942456 50.607158-115.981474 78.452772-186.026667 78.452772h-0.808421c-70.045193 0-136.102175-27.845614-186.026666-78.452772a266.958596 266.958596 0 0 1-77.392842-188.577684v-233.615719l-55.188211-138.078316zM415.217898 717.967719c-15.449825 0-29.067228 11.497544-31.81586 27.75579a131.826526 131.826526 0 0 0-1.832421 22.168702C381.569617 838.476351 436.973406 896 505.168213 896c68.230737 0 123.634526-57.41586 123.634527-128.089825 0-7.365614-0.682667-14.839018-1.832421-22.186666-3.089965-18.036772-19.581754-30.252912-37.079579-27.288702l-65.032983 10.904702a116.161123 116.161123 0 0 1-39.468912 0l-65.032983-10.904702c-1.706667-0.359298-3.413333-0.467088-5.137964-0.467088z m89.860491 80.051649c10.060351 0 20.120702-0.826386 30.091228-2.479157l24.252631-4.042106c-8.910596 21.953123-29.857684 37.492772-54.343859 37.492772-24.50414 0-45.451228-15.539649-54.37979-37.492772l24.252632 4.042106c10.096281 1.652772 20.156632 2.479158 30.127158 2.479157zM672.960494-128H351.029266C330.854669-128 314.380845-110.933333 314.380845-90.04014c0 20.875228 16.473825 37.95986 36.630456 37.959859H672.960494c20.156632 0 36.630456-17.084632 36.630456-37.959859S693.135091-128 672.978459-128z"  horiz-adv-x="1024" />

    
    <glyph glyph-name="sydingdan1" unicode="&#58952;" d="M129.767226 251.061677v-315.078193h764.465548V251.061677zM830.530065 768H734.967742V831.983484h-85.80129C621.584516 870.10271 570.797419 896 512 896c-58.797419 0-109.584516-25.89729-137.166452-64.016516H289.032258V768H193.469935C123.111226 768 66.064516 710.672516 66.064516 639.983484V0C66.064516-70.689032 123.09471-128 193.469935-128h637.043613C900.872258-128 957.935484-70.689032 957.935484 0V639.983484c0 70.705548-57.030194 128.016516-127.405419 128.016516z m-477.795097 0h70.771613c0 35.344516 39.63871 63.983484 88.493419 63.983484 48.85471 0 88.493419-28.622452 88.493419-63.983484h70.755097v-128.016516H352.784516V768h-0.033032z m541.497806-768a63.851355 63.851355 0 0 0-63.702709-64.016516H193.469935c-35.179355 0-63.70271 28.655484-63.702709 64.016516V639.983484a63.851355 63.851355 0 0 0 63.702709 64H289.032258v-128h445.935484v128h95.562323a63.851355 63.851355 0 0 0 63.702709-64V0zM734.967742 128h-445.935484a31.925677 31.925677 0 0 1-31.859613-31.991742c0-17.672258 14.269935-32.024774 31.876129-32.024774h445.935484a31.925677 31.925677 0 0 1 31.843097 32.024774c0 17.672258-14.253419 31.991742-31.859613 31.991742z m0 319.983484h-445.935484a31.925677 31.925677 0 0 1-31.859613-31.991742c0-17.672258 14.269935-31.991742 31.876129-31.991742h445.935484a31.909161 31.909161 0 0 1 31.843097 31.991742c0 17.672258-14.253419 31.991742-31.859613 31.991742z m0-159.975226h-445.935484a31.95871 31.95871 0 0 1-31.430193-32.008258c0-17.507097 14.005677-31.760516 31.430193-31.991742h445.935484a31.925677 31.925677 0 0 1 31.859613 31.991742c0 17.672258-14.269935 31.991742-31.859613 31.991742v0.016516z"  horiz-adv-x="1024" />

    
    <glyph glyph-name="syshitu1" unicode="&#58954;" d="M62.051097 462.897548l915.290838-330.586838v-187.177291l-70.160516-35.11329H271.756387V91.416774H101.954065L31.050323 265.909677zM804.583226 804.583226v-91.449807h-73.166452V804.583226c0 4.938323-1.816774 9.232516-5.433806 12.833032a17.589677 17.589677 0 0 1-12.866065 5.450323H91.449806c-4.987871 0-9.249032-1.816774-12.88258-5.450323a17.573161 17.573161 0 0 1-5.433807-12.833032v-621.716645c0-4.954839 1.816774-9.249032 5.450323-12.866065 3.600516-3.633548 7.878194-5.41729 12.849548-5.41729h127.70271v-73.166452H91.43329c-25.137548 0-46.658065 8.951742-64.578064 26.871742C8.951742 136.192 0 157.729032 0 182.866581V804.583226c0 25.104516 8.951742 46.658065 26.855226 64.561548C44.75871 887.031742 66.295742 896 91.43329 896h621.700129c25.154065 0 46.674581-8.968258 64.578065-26.855226 17.903484-17.92 26.871742-39.440516 26.871742-64.578064zM1024 585.133419v-621.700129c0-25.137548-8.968258-46.658065-26.855226-64.578064C979.224774-119.031742 957.704258-128 932.56671-128H310.866581c-25.154065 0-46.674581 8.968258-64.578065 26.855226-17.903484 17.92-26.871742 39.440516-26.871742 64.578064V585.133419c0 25.154065 8.968258 46.674581 26.871742 64.578065s39.440516 26.871742 64.578065 26.871742h621.700129c25.137548 0 46.658065-8.968258 64.578064-26.871742C1015.031742 631.808 1024 610.287484 1024 585.133419z m-73.133419-621.700129V585.133419c0 4.954839-1.816774 9.249032-5.433807 12.866065a17.589677 17.589677 0 0 1-12.849548 5.450322H310.866581c-4.954839 0-9.249032-1.83329-12.866065-5.450322a17.573161 17.573161 0 0 1-5.41729-12.866065v-621.700129c0-4.954839 1.783742-9.232516 5.41729-12.849548 3.633548-3.633548 7.89471-5.450323 12.866065-5.450323h621.716645c4.938323 0 9.232516 1.816774 12.849548 5.450323 3.617032 3.600516 5.433806 7.878194 5.433807 12.849548z"  horiz-adv-x="1024" />

    
    <glyph glyph-name="wdqiehuanzhanghao" unicode="&#58955;" d="M901.518222 241.777778l-46.592-37.802667 31.061334-50.830222H483.555556v-65.621333h512L901.518222 241.777778zM556.145778-128l51.029333 29.127111-23.722667 55.182222H995.555556v65.621334H491.690667L556.145778-128zM677.546667 232.305778l41.984 46.933333a416.341333 416.341333 0 0 1-111.758223 61.980445C686.364444 393.244444 739.555556 487.964444 739.555556 597.333333 739.555556 762.282667 619.918222 896 472.32 896c-147.569778 0-267.207111-133.717333-267.207111-298.666667 0-109.368889 53.276444-204.088889 131.84-256.113777C162.958222 278.926222 40.647111 104.192 28.444444-99.555556h59.392c15.246222 222.407111 181.646222 398.222222 384.483556 398.222223 75.434667 0 145.806222-24.348444 205.226667-66.360889zM264.533333 597.333333c0 128.085333 93.212444 232.305778 207.758223 232.305778 114.631111 0 207.928889-104.220444 207.928888-232.305778s-93.240889-232.305778-207.928888-232.305777c-114.688 0.199111-207.644444 104.106667-207.758223 232.305777z"  horiz-adv-x="1024" />

    
    <glyph glyph-name="wddingdan" unicode="&#58957;" d="M830.530065 768H734.967742V831.983484h-85.80129C621.584516 870.10271 570.797419 896 512 896c-58.797419 0-109.584516-25.89729-137.166452-64.016516H289.032258V768H193.469935C123.111226 768 66.064516 710.672516 66.064516 639.983484V0C66.064516-70.689032 123.09471-128 193.469935-128h637.043613C900.872258-128 957.935484-70.689032 957.935484 0V639.983484c0 70.705548-57.030194 128.016516-127.405419 128.016516z m-477.795097 0h70.771613c0 35.344516 39.63871 63.983484 88.493419 63.983484 48.85471 0 88.493419-28.622452 88.493419-63.983484h70.755097v-128.016516H352.784516V768h-0.033032z m541.497806-768a63.851355 63.851355 0 0 0-63.702709-64.016516H193.469935c-35.179355 0-63.70271 28.655484-63.702709 64.016516V639.983484a63.851355 63.851355 0 0 0 63.702709 64H289.032258v-128h445.935484v128h95.562323a63.851355 63.851355 0 0 0 63.702709-64V0zM734.967742 128h-445.935484a31.925677 31.925677 0 0 1-31.859613-31.991742c0-17.672258 14.269935-32.024774 31.876129-32.024774h445.935484a31.925677 31.925677 0 0 1 31.843097 32.024774c0 17.672258-14.253419 31.991742-31.859613 31.991742z m0 319.983484h-445.935484a31.925677 31.925677 0 0 1-31.859613-31.991742c0-17.672258 14.269935-31.991742 31.876129-31.991742h445.935484a31.909161 31.909161 0 0 1 31.843097 31.991742c0 17.672258-14.253419 31.991742-31.859613 31.991742z m0-159.975226h-445.935484a31.95871 31.95871 0 0 1-31.430193-32.008258c0-17.507097 14.005677-31.760516 31.430193-31.991742h445.935484a31.925677 31.925677 0 0 1 31.859613 31.991742c0 17.672258-14.269935 31.991742-31.859613 31.991742v0.016516z"  horiz-adv-x="1024" />

    
    <glyph glyph-name="wdtongzhi" unicode="&#58956;" d="M824.5 69.3H221.7c-17.3 0-33.4 8.6-43.1 22.9-9.7 14.4-11.6 32.5-5.1 48.6l49.2 121.5V446.9c0 38.9 7.7 76.7 22.9 112.4 14.6 34.4 35.5 65.3 62.1 91.9 26.6 26.6 57.5 47.5 91.9 62.1 35.7 15.2 73.5 22.9 112.4 22.9h0.7c38.9 0 76.7-7.7 112.4-22.9 34.4-14.6 65.3-35.5 91.9-62.1 26.6-26.6 47.5-57.5 62.1-91.9 15.2-35.7 22.9-73.5 22.9-112.4v-182.3l67.5-117.4c9.4-16.3 9.3-35.7-0.1-52-9.3-16.2-26.2-25.9-44.9-25.9z m-585 64h564.2L738 247.5V446.9c0 59.9-23.5 116.4-66.2 159.1-42.7 42.7-99.2 66.2-159.1 66.2h-0.7c-59.9 0-116.4-23.5-159.1-66.2-42.7-42.7-66.2-99.2-66.2-159.1v-197.1l-47.2-116.5zM432.8 663.2c-13.5 0-25.4 9.7-27.8 23.4-1.1 6.2-1.6 12.5-1.6 18.7 0 59.5 48.4 108 108 108s108-48.4 108-108c0-6.2-0.6-12.5-1.6-18.7-2.7-15.2-17.1-25.5-32.4-23l-56.8 9.2c-11.4 1.9-23 1.9-34.5 0l-56.8-9.2c-1.5-0.3-3-0.4-4.5-0.4z m78.5 67.5c8.8 0 17.6-0.7 26.3-2.1l21.2-3.4c-7.8 18.5-26.1 31.6-47.5 31.6s-39.7-13.1-47.5-31.6l21.2 3.4c8.8 1.4 17.6 2.1 26.3 2.1zM658-50H376.7c-17.6 0-32 14.4-32 32s14.4 32 32 32H658c17.6 0 32-14.4 32-32s-14.4-32-32-32z"  horiz-adv-x="1024" />

    
    <glyph glyph-name="weizhi" unicode="&#58958;" d="M708.267 170.667c-10.667-12.8-2.134-32 12.8-34.134 51.2-6.4 98.133-17.066 138.666-27.733 98.134-27.733 119.467-59.733 119.467-64 0-6.4-21.333-36.267-119.467-64-93.866-27.733-217.6-42.667-349.866-42.667-132.267 0-258.134 14.934-349.867 42.667-96 25.6-117.333 55.467-117.333 61.867 0 6.4 21.333 36.266 119.466 64 40.534 12.8 87.467 21.333 140.8 27.733 17.067 2.133 23.467 21.333 14.934 34.133-4.267 6.4-10.667 8.534-19.2 8.534C121.6 153.6 0 102.4 0 42.667c0-83.2 228.267-149.334 512-149.334s512 66.134 512 149.334c0 59.733-121.6 110.933-296.533 134.4-6.4 2.133-14.934-2.134-19.2-6.4zM810.667 576c0 164.267-134.4 298.667-298.667 298.667S213.333 740.267 213.333 576c0-162.133 221.867-424.533 283.734-494.933 8.533-8.534 23.466-10.667 32 0 59.733 70.4 281.6 328.533 281.6 494.933zM512 832c140.8 0 256-115.2 256-256 0-119.467-183.467-356.267-238.933-426.667-8.534-10.666-25.6-10.666-34.134 0C439.467 219.733 256 456.533 256 576c0 140.8 115.2 256 256 256zM661.333 576c0 83.2-66.133 149.333-149.333 149.333S362.667 659.2 362.667 576 428.8 426.667 512 426.667 661.333 492.8 661.333 576z m-256 0c0 59.733 46.934 106.667 106.667 106.667S618.667 635.733 618.667 576 571.733 469.333 512 469.333 405.333 516.267 405.333 576z"  horiz-adv-x="1024" />

    


  </font>
</defs>
</svg>
